# xmcd
#
# Track frame offsets:
#	150
#	4837
#	21207
#	35853
#	48573
#	58926
#	73568
#	90598
#	103468
#	111460
#	124505
#
# Disc length: 1829 seconds
#
# Revision: 2
# Processed by: cddbd v1.5.2PL0 Copyright (c) Steve Scherf et al.
# Submitted via: EZCDDA 4.3.2
#
DISCID=9f07230b
DTITLE=Atrocious Abnormality - Echoes Of The Rotting
DYEAR=1900
DGENRE=
TTITLE0=Dead In Sixty Seconds
TTITLE1=Punished Humanity
TTITLE2=The Birth Of Violence
TTITLE3=Raped Apart
TTITLE4=Bastard Spawn
TTITLE5=Beyond Obliteration
TTITLE6=Euphoric Flesh Consumption
TTITLE7=Open Wound Penetration
TTITLE8=Mommy Can I Go Out And Kill To
TTITLE9=Vicious Perversions
TTITLE10=Echoes Of The Rotting
EXTD=
EXTT0=
EXTT1=
EXTT2=
EXTT3=
EXTT4=
EXTT5=
EXTT6=
EXTT7=
EXTT8=
EXTT9=
EXTT10=
PLAYORDER=
